<svg xmlns="http://www.w3.org/2000/svg" width="1024" height="1024" viewBox="0 0 1024 1024">
  <defs>
    <linearGradient id="bg" x1="128" y1="80" x2="896" y2="944" gradientUnits="userSpaceOnUse">
      <stop offset="0" stop-color="#A8E4DC"/>
      <stop offset="0.48" stop-color="#4ECDC4"/>
      <stop offset="1" stop-color="#2C8F8A"/>
    </linearGradient>
    <radialGradient id="halo" cx="45%" cy="36%" r="58%">
      <stop offset="0" stop-color="#FAF6F0" stop-opacity="0.96"/>
      <stop offset="0.78" stop-color="#FAF6F0" stop-opacity="0.42"/>
      <stop offset="1" stop-color="#FAF6F0" stop-opacity="0"/>
    </radialGradient>
    <filter id="shadow" x="-20%" y="-20%" width="140%" height="150%">
      <feDropShadow dx="0" dy="26" stdDeviation="26" flood-color="#173A3C" flood-opacity="0.26"/>
    </filter>
    <clipPath id="round">
      <rect width="1024" height="1024" rx="228" ry="228"/>
    </clipPath>
  </defs>

  <g>
    <rect width="1024" height="1024" fill="url(#bg)"/>
    <circle cx="440" cy="370" r="472" fill="url(#halo)"/>
    <g opacity="0.18" fill="#FAF6F0">
      <circle cx="155" cy="182" r="10"/>
      <circle cx="245" cy="132" r="7"/>
      <circle cx="843" cy="190" r="9"/>
      <circle cx="898" cy="780" r="12"/>
      <circle cx="142" cy="798" r="8"/>
      <circle cx="760" cy="865" r="6"/>
    </g>
    <ellipse cx="512" cy="816" rx="250" ry="58" fill="#143537" opacity="0.16"/>

    <g filter="url(#shadow)" stroke="#102335" stroke-linecap="round" stroke-linejoin="round">
      <g transform="translate(0 -8)">
        <path
          d="M592 433C697 454 768 551 752 668C738 773 655 842 560 831C462 820 394 730 408 626C422 519 493 413 592 433Z"
          fill="#4ECDC4"
          stroke-width="18"
        />
        <path d="M548 465C620 502 667 596 644 744" fill="none" stroke="#2C3E50" stroke-width="10" opacity="0.36"/>
        <path d="M633 506C584 552 554 638 560 792" fill="none" stroke="#2C3E50" stroke-width="10" opacity="0.34"/>
        <path d="M488 565C565 547 641 555 716 596" fill="none" stroke="#2C3E50" stroke-width="10" opacity="0.32"/>
        <path d="M468 678C548 660 627 668 704 715" fill="none" stroke="#2C3E50" stroke-width="10" opacity="0.3"/>

        <path
          d="M298 556C236 535 189 500 164 452"
          fill="none"
          stroke="#102335"
          stroke-width="58"
        />
        <path
          d="M298 556C236 535 189 500 164 452"
          fill="none"
          stroke="#C9E7D2"
          stroke-width="42"
        />
        <path
          d="M138 411C153 380 191 372 214 394C235 414 229 453 196 473C159 496 120 449 138 411Z"
          fill="#C9E7D2"
          stroke-width="14"
        />
        <path d="M125 330L90 298" fill="none" stroke="#FAF6F0" stroke-width="18" opacity="0.85"/>
        <path d="M174 318L164 262" fill="none" stroke="#FAF6F0" stroke-width="18" opacity="0.85"/>
        <path d="M226 345L266 306" fill="none" stroke="#FAF6F0" stroke-width="18" opacity="0.85"/>

        <path
          d="M330 597C334 476 397 391 493 394C587 397 654 488 648 615C642 744 575 827 481 825C384 823 326 722 330 597Z"
          fill="#C9E7D2"
          stroke-width="18"
        />
        <ellipse cx="478" cy="676" rx="104" ry="144" fill="#FFF6DE" stroke="#E6D7B2" stroke-width="8"/>
        <path d="M382 606C444 626 518 627 579 604" fill="none" stroke="#E6D7B2" stroke-width="8" opacity="0.8"/>
        <path d="M370 668C436 690 522 691 587 668" fill="none" stroke="#E6D7B2" stroke-width="8" opacity="0.72"/>
        <path d="M383 735C442 752 514 753 573 735" fill="none" stroke="#E6D7B2" stroke-width="8" opacity="0.64"/>

        <ellipse cx="358" cy="817" rx="53" ry="42" fill="#C9E7D2" stroke-width="14"/>
        <ellipse cx="537" cy="817" rx="57" ry="43" fill="#C9E7D2" stroke-width="14"/>
        <circle cx="330" cy="803" r="9" fill="#FAF6F0"/>
        <circle cx="371" cy="806" r="9" fill="#FAF6F0"/>
        <circle cx="509" cy="804" r="9" fill="#FAF6F0"/>
        <circle cx="552" cy="806" r="9" fill="#FAF6F0"/>

        <path
          d="M622 548C676 569 697 632 673 688"
          fill="none"
          stroke="#102335"
          stroke-width="50"
        />
        <path
          d="M622 548C676 569 697 632 673 688"
          fill="none"
          stroke="#C9E7D2"
          stroke-width="35"
        />
        <ellipse cx="668" cy="705" rx="39" ry="34" fill="#C9E7D2" stroke-width="13"/>
        <circle cx="644" cy="699" r="8" fill="#FAF6F0"/>
        <circle cx="680" cy="707" r="8" fill="#FAF6F0"/>

        <ellipse cx="450" cy="386" rx="190" ry="164" fill="#C9E7D2" stroke-width="18"/>
        <path d="M312 299C334 258 379 236 427 232" fill="none" stroke="#FAF6F0" stroke-width="20" opacity="0.95"/>
        <ellipse cx="376" cy="396" rx="27" ry="36" fill="#102335"/>
        <ellipse cx="529" cy="396" rx="27" ry="36" fill="#102335"/>
        <circle cx="366" cy="382" r="8" fill="#FAF6F0"/>
        <circle cx="519" cy="382" r="8" fill="#FAF6F0"/>
        <ellipse cx="316" cy="460" rx="37" ry="24" fill="#F4C37C" opacity="0.92" stroke="none"/>
        <ellipse cx="582" cy="460" rx="37" ry="24" fill="#F4C37C" opacity="0.92" stroke="none"/>
        <path d="M411 455C434 481 472 482 493 455" fill="none" stroke="#102335" stroke-width="12"/>
      </g>
    </g>

    <g transform="translate(704 132)">
      <circle cx="92" cy="92" r="82" fill="#F4D03F" stroke="#FAF6F0" stroke-width="16"/>
      <circle cx="92" cy="92" r="66" fill="none" stroke="#2C3E50" stroke-width="8" opacity="0.24"/>
      <text
        x="92"
        y="122"
        text-anchor="middle"
        font-family="serif"
        font-size="96"
        font-weight="800"
        fill="#2C3E50"
      >占</text>
    </g>
  </g>
</svg>
